<?xml version="1.0" standalone="no"?>
<!DOCTYPE svg PUBLIC "-//W3C//DTD SVG 20010904//EN"
 "http://www.w3.org/TR/2001/REC-SVG-20010904/DTD/svg10.dtd">
<svg version="1.0" xmlns="http://www.w3.org/2000/svg"
 width="1280.000000pt" height="1253.000000pt" viewBox="0 0 1280.000000 1253.000000"
 preserveAspectRatio="xMidYMid meet">
<g transform="translate(0.000000,1253.000000) scale(0.100000,-0.100000)"
fill="#000000" stroke="none">
<path d="M12055 12520 c-16 -4 -65 -13 -109 -19 -218 -34 -534 -166 -859 -360
-1063 -633 -2735 -2164 -4788 -4386 -649 -703 -1382 -1526 -1859 -2090 -79
-93 -168 -198 -198 -233 l-54 -63 -185 97 c-2243 1166 -3352 1447 -3809 962
-95 -100 -138 -189 -173 -353 -26 -123 -26 -147 -1 -220 34 -99 63 -135 232
-290 375 -343 951 -936 1279 -1315 806 -934 1602 -2121 2584 -3854 72 -126
147 -248 168 -272 46 -52 100 -85 181 -110 56 -17 61 -17 124 0 88 23 129 46
179 98 50 52 65 81 141 273 88 221 266 648 380 910 1324 3052 2940 5640 4877
7810 449 503 1085 1152 1835 1872 610 585 731 734 785 971 18 81 18 86 1 150
-61 233 -207 352 -506 413 -98 19 -173 23 -225 9z"/>
</g>
</svg>
